# xmcd
#
# Track frame offsets: 
#        150
#        14482
#        33755
#        53341
#        72806
#        92014
#        106361
#        119806
#        145690
#        160451
#        174344
#
# Disc length: 2551 seconds
#
# Revision: 0
# Processed by: cddbd v1.5.2PL0 Copyright (c) Steve Scherf et al.
# Submitted via: ExactAudioCopyFreeDBPlugin 1.0
#
DISCID=8a09f50b
DTITLE=Franck Goldwasser - Can't Raise Me
DYEAR=2012
DGENRE=Blues
TTITLE0=Can't Raise Me
TTITLE1=Sweet Lovin' Mama
TTITLE2=Chicago Blues Festival
TTITLE3=Chicken Heads
TTITLE4=Sleep With Me Baby
TTITLE5=Stumptown Blues
TTITLE6=Baby I Ain't From Texas
TTITLE7=Dumb and Dangerous
TTITLE8=Bad News This Morning
TTITLE9=Tell Me What's The Reason
TTITLE10=Black Nights
EXTD=
EXTT0=
EXTT1=
EXTT2=
EXTT3=
EXTT4=
EXTT5=
EXTT6=
EXTT7=
EXTT8=
EXTT9=
EXTT10=
PLAYORDER=
